<svg version="1.1" id="Layer_1" xmlns="http://www.w3.org/2000/svg" xmlns:xlink="http://www.w3.org/1999/xlink" x="0px" y="0px"
	 width="100%" viewBox="0 0 169 169" enable-background="new 0 0 169 169" xml:space="preserve">
<path fill="#1D1D1D" opacity="1.000000" stroke="none" 
	d="
M41.000000,170.000000 
	C41.000000,170.000000 40.500000,170.000000 40.098709,169.670486 
	C32.872093,168.463531 29.469456,163.771408 27.047359,157.610260 
	C27.060768,156.481293 27.072004,155.730911 27.241413,154.883301 
	C27.275473,154.526184 27.151356,154.266296 26.920452,153.547989 
	C26.806095,113.200684 26.789398,73.311790 26.801590,33.422909 
	C26.803263,27.946411 26.948483,22.469957 27.194765,16.912960 
	C27.434221,16.732950 27.587292,16.574537 27.564831,16.543610 
	C27.426302,16.352873 27.248203,16.190874 27.007904,15.648367 
	C26.974520,14.522195 27.016491,13.766977 27.334929,12.800686 
	C29.454811,7.387667 31.890932,2.882592 38.415035,2.737120 
	C38.956001,2.725058 39.472260,1.605168 40.000000,1.000000 
	C40.000000,1.000000 40.500000,1.000000 41.031483,1.311161 
	C42.209236,1.744167 42.855446,1.972179 43.501789,1.972571 
	C70.780525,1.989106 98.059296,1.998033 125.337936,1.942363 
	C126.559258,1.939871 127.779343,1.328023 129.000000,1.000001 
	C129.000000,1.000000 129.500000,1.000000 129.906769,1.353916 
	C136.361023,2.337058 140.069046,6.196692 143.128693,11.393639 
	C143.421722,14.951334 143.933121,18.090931 143.937103,21.231171 
	C143.990463,63.356606 143.996704,105.482162 143.935822,147.607574 
	C143.929840,151.746201 143.403717,155.884048 142.827087,160.227234 
	C140.148575,165.968979 135.527115,168.577759 130.000000,170.000000 
	C129.555664,170.000000 129.111328,170.000000 128.050049,169.691391 
	C126.619804,169.260971 125.806557,169.033279 124.993149,169.032669 
	C98.214882,169.012634 71.436569,169.001419 44.658394,169.054764 
	C43.438305,169.057190 42.219437,169.670959 41.000000,170.000000 
M99.500000,12.956567 
	C82.024445,12.959796 64.548882,12.972672 47.073338,12.959937 
	C42.293934,12.956454 38.945744,14.546242 38.770794,19.978516 
	C38.557335,26.606768 38.161591,33.232525 38.103592,39.861626 
	C38.013107,50.203827 40.756214,52.911003 50.989929,52.923950 
	C67.633301,52.945004 84.276726,52.929745 100.920128,52.929607 
	C107.743919,52.929550 114.569023,53.013149 121.391174,52.907192 
	C129.812057,52.776402 132.042572,50.469215 132.055847,42.187344 
	C132.066788,35.363571 132.091446,28.539513 132.043976,21.716042 
	C131.997955,15.103234 129.968292,13.022812 123.467789,12.975120 
	C115.812225,12.918951 108.155960,12.958449 99.500000,12.956567 
M48.214741,157.923431 
	C59.524059,157.990341 70.833572,158.036957 82.142509,158.144012 
	C84.037109,158.161957 86.099579,159.008652 87.792236,158.499969 
	C94.228241,156.565781 97.984787,150.569458 97.054619,144.399719 
	C96.220375,138.866257 91.645554,134.982529 84.891975,134.839783 
	C73.753929,134.604385 62.605141,134.585876 51.466316,134.782913 
	C44.233902,134.910889 39.834400,138.529541 38.829651,144.408249 
	C37.787918,150.503372 40.475948,154.713333 48.214741,157.923431 
M43.296402,86.325653 
	C47.079906,88.532326 50.957272,88.943115 54.984089,86.986641 
	C59.183529,84.946281 61.744114,81.695702 62.032730,76.984146 
	C62.299095,72.635841 60.960979,68.855446 57.062317,66.467941 
	C51.360565,62.976242 44.773689,63.997955 41.056595,68.821457 
	C37.085468,73.974617 37.907703,80.686668 43.296402,86.325653 
M89.288986,64.990189 
	C85.151405,63.392246 81.441696,64.433937 78.094391,66.998077 
	C74.121231,70.041641 72.902306,75.584282 74.526741,80.483368 
	C76.142555,85.356461 80.131279,88.005074 84.345673,88.575569 
	C89.802956,89.314316 95.658905,84.093536 96.901184,79.149925 
	C98.336357,73.438667 96.101440,68.900963 89.288986,64.990189 
M129.922974,83.326187 
	C133.107452,78.973236 133.341446,74.347336 130.568451,69.842400 
	C128.132050,65.884300 124.247368,63.852173 119.602135,64.346855 
	C114.802261,64.858017 111.320526,67.605995 109.559990,72.191345 
	C107.692436,77.055443 109.585358,82.677849 114.005295,85.818527 
	C119.331268,89.602982 123.411079,89.097298 129.922974,83.326187 
M40.809864,104.409851 
	C40.080944,106.405983 38.862175,108.364830 38.706879,110.404633 
	C37.988720,119.837845 47.294880,124.928299 53.887913,122.536995 
	C59.048115,120.665359 62.027695,116.917412 62.060665,111.249260 
	C62.089794,106.241714 59.595142,102.603729 55.176151,100.607086 
	C49.881195,98.214653 45.156464,99.558952 40.809864,104.409851 
M81.340965,122.228371 
	C86.439865,124.519081 90.648537,122.976311 94.235199,119.122055 
	C97.666687,115.434540 98.178062,109.745399 95.602798,105.216400 
	C93.134926,100.876251 88.000511,98.727257 82.895714,99.897873 
	C77.801033,101.066170 74.411865,104.761734 73.885567,109.722549 
	C73.296753,115.272621 75.806076,119.839569 81.340965,122.228371 
M120.277931,123.005203 
	C123.730431,124.877281 125.755096,121.916222 127.899651,120.392654 
	C131.962494,117.506256 133.076614,113.155983 131.966629,108.401436 
	C130.941269,104.009354 128.087006,101.148766 123.695854,99.968361 
	C117.469460,98.294617 110.920258,102.041542 109.256287,108.175316 
	C107.382637,115.082069 111.561005,121.120720 120.277931,123.005203 
M126.890648,156.396362 
	C127.868553,155.512009 128.979172,154.735626 129.801666,153.724823 
	C133.595673,149.062164 133.099091,142.124954 128.756058,137.954727 
	C124.439751,133.810181 117.419106,133.643402 112.927452,137.578720 
	C108.367126,141.574203 107.590805,148.370087 111.130943,153.305359 
	C114.576004,158.108078 121.172646,159.624771 126.890648,156.396362 
M51.519798,133.396103 
	C51.519798,133.396103 51.594181,133.507080 51.519798,133.396103 
M84.402855,133.465942 
	C84.402855,133.465942 84.518799,133.399918 84.402855,133.465942 
z"/>
<path fill="#FFFFFF" opacity="1.000000" stroke="none" 
	d="
M143.119034,160.022263 
	C143.403717,155.884048 143.929840,151.746201 143.935822,147.607574 
	C143.996704,105.482162 143.990463,63.356606 143.937103,21.231171 
	C143.933121,18.090931 143.421722,14.951334 143.399689,11.096663 
	C143.768768,7.254590 143.884384,4.127295 144.000000,1.000000 
	C152.649475,1.000000 161.298965,1.000000 169.946167,1.000009 
	C169.943878,57.333359 169.943878,113.666702 169.943878,170.000000 
	C161.570938,170.000000 153.254135,170.000000 144.458069,169.555450 
	C143.692215,166.081360 143.405624,163.051804 143.119034,160.022263 
z"/>
<path fill="#FFFFFF" opacity="1.000000" stroke="none" 
	d="
M27.027241,16.993484 
	C26.948483,22.469957 26.803263,27.946411 26.801590,33.422909 
	C26.789398,73.311790 26.806095,113.200684 26.855518,153.796051 
	C26.959332,154.661880 27.021286,154.821213 27.083241,154.980530 
	C27.072004,155.730911 27.060768,156.481293 26.735226,157.883850 
	C26.280613,162.357346 26.140306,166.178680 26.000000,170.000000 
	C17.683346,170.000000 9.366693,170.000000 1.052693,170.000000 
	C1.055346,113.666641 1.055346,57.333302 1.055346,1.000000 
	C9.094675,1.000000 17.078659,1.000000 25.542936,1.457763 
	C26.368307,5.614270 26.713383,9.313014 27.058460,13.011759 
	C27.016491,13.766977 26.974520,14.522195 26.914970,15.887369 
	C26.940672,16.662712 26.983957,16.828098 27.027241,16.993484 
z"/>
<path fill="#40403F" opacity="1.000000" stroke="none" 
	d="
M128.531342,1.000001 
	C127.779343,1.328023 126.559258,1.939871 125.337936,1.942363 
	C98.059296,1.998033 70.780525,1.989106 43.501789,1.972571 
	C42.855446,1.972179 42.209236,1.744167 41.281483,1.311161 
	C70.020897,1.000000 99.041786,1.000000 128.531342,1.000001 
z"/>
<path fill="#40403F" opacity="1.000000" stroke="none" 
	d="
M41.468658,170.000000 
	C42.219437,169.670959 43.438305,169.057190 44.658394,169.054764 
	C71.436569,169.001419 98.214882,169.012634 124.993149,169.032669 
	C125.806557,169.033279 126.619804,169.260971 127.716560,169.691391 
	C99.312439,170.000000 70.624878,170.000000 41.468658,170.000000 
z"/>
<path fill="#CBCBC9" opacity="1.000000" stroke="none" 
	d="
M27.334927,12.800686 
	C26.713383,9.313014 26.368307,5.614270 26.011616,1.457763 
	C30.356899,1.000000 34.713799,1.000000 39.535347,1.000000 
	C39.472260,1.605168 38.956001,2.725058 38.415035,2.737120 
	C31.890932,2.882592 29.454811,7.387667 27.334927,12.800686 
z"/>
<path fill="#CFCFCD" opacity="1.000000" stroke="none" 
	d="
M26.464651,170.000000 
	C26.140306,166.178680 26.280613,162.357346 26.733051,158.262451 
	C29.469456,163.771408 32.872093,168.463531 39.848709,169.670486 
	C35.643101,170.000000 31.286201,170.000000 26.464651,170.000000 
z"/>
<path fill="#C9C9C7" opacity="1.000000" stroke="none" 
	d="
M143.535355,1.000000 
	C143.884384,4.127295 143.768768,7.254590 143.382172,10.678863 
	C140.069046,6.196692 136.361023,2.337058 130.156769,1.353916 
	C134.356903,1.000000 138.713806,1.000000 143.535355,1.000000 
z"/>
<path fill="#CCCCCA" opacity="1.000000" stroke="none" 
	d="
M142.827087,160.227234 
	C143.405624,163.051804 143.692215,166.081360 143.989410,169.555450 
	C139.643097,170.000000 135.286194,170.000000 130.464645,170.000000 
	C135.527115,168.577759 140.148575,165.968979 142.827087,160.227234 
z"/>
<path fill="#505050" opacity="1.000000" stroke="none" 
	d="
M100.000000,12.956516 
	C108.155960,12.958449 115.812225,12.918951 123.467789,12.975120 
	C129.968292,13.022812 131.997955,15.103234 132.043976,21.716042 
	C132.091446,28.539513 132.066788,35.363571 132.055847,42.187344 
	C132.042572,50.469215 129.812057,52.776402 121.391174,52.907192 
	C114.569023,53.013149 107.743919,52.929550 100.920128,52.929607 
	C84.276726,52.929745 67.633301,52.945004 50.989929,52.923950 
	C40.756214,52.911003 38.013107,50.203827 38.103592,39.861626 
	C38.161591,33.232525 38.557335,26.606768 38.770794,19.978516 
	C38.945744,14.546242 42.293934,12.956454 47.073338,12.959937 
	C64.548882,12.972672 82.024445,12.959796 100.000000,12.956516 
z"/>
<path fill="#D3D3D1" opacity="1.000000" stroke="none" 
	d="
M47.795052,157.857941 
	C40.475948,154.713333 37.787918,150.503372 38.829651,144.408249 
	C39.834400,138.529541 44.233902,134.910889 51.466316,134.782913 
	C62.605141,134.585876 73.753929,134.604385 84.891975,134.839783 
	C91.645554,134.982529 96.220375,138.866257 97.054619,144.399719 
	C97.984787,150.569458 94.228241,156.565781 87.792236,158.499969 
	C86.099579,159.008652 84.037109,158.161957 82.142509,158.144012 
	C70.833572,158.036957 59.524059,157.990341 47.795052,157.857941 
z"/>
<path fill="#D0D0CE" opacity="1.000000" stroke="none" 
	d="
M43.202950,85.952713 
	C37.907703,80.686668 37.085468,73.974617 41.056595,68.821457 
	C44.773689,63.997955 51.360565,62.976242 57.062317,66.467941 
	C60.960979,68.855446 62.299095,72.635841 62.032730,76.984146 
	C61.744114,81.695702 59.183529,84.946281 54.984089,86.986641 
	C50.957272,88.943115 47.079906,88.532326 43.202950,85.952713 
z"/>
<path fill="#D0D0CE" opacity="1.000000" stroke="none" 
	d="
M89.658356,65.092232 
	C96.101440,68.900963 98.336357,73.438667 96.901184,79.149925 
	C95.658905,84.093536 89.802956,89.314316 84.345673,88.575569 
	C80.131279,88.005074 76.142555,85.356461 74.526741,80.483368 
	C72.902306,75.584282 74.121231,70.041641 78.094391,66.998077 
	C81.441696,64.433937 85.151405,63.392246 89.658356,65.092232 
z"/>
<path fill="#FA9201" opacity="1.000000" stroke="none" 
	d="
M129.689178,83.614838 
	C123.411079,89.097298 119.331268,89.602982 114.005295,85.818527 
	C109.585358,82.677849 107.692436,77.055443 109.559990,72.191345 
	C111.320526,67.605995 114.802261,64.858017 119.602135,64.346855 
	C124.247368,63.852173 128.132050,65.884300 130.568451,69.842400 
	C133.341446,74.347336 133.107452,78.973236 129.689178,83.614838 
z"/>
<path fill="#D1D1CF" opacity="1.000000" stroke="none" 
	d="
M41.024261,104.107155 
	C45.156464,99.558952 49.881195,98.214653 55.176151,100.607086 
	C59.595142,102.603729 62.089794,106.241714 62.060665,111.249260 
	C62.027695,116.917412 59.048115,120.665359 53.887913,122.536995 
	C47.294880,124.928299 37.988720,119.837845 38.706879,110.404633 
	C38.862175,108.364830 40.080944,106.405983 41.024261,104.107155 
z"/>
<path fill="#D1D1CF" opacity="1.000000" stroke="none" 
	d="
M80.969818,122.084335 
	C75.806076,119.839569 73.296753,115.272621 73.885567,109.722549 
	C74.411865,104.761734 77.801033,101.066170 82.895714,99.897873 
	C88.000511,98.727257 93.134926,100.876251 95.602798,105.216400 
	C98.178062,109.745399 97.666687,115.434540 94.235199,119.122055 
	C90.648537,122.976311 86.439865,124.519081 80.969818,122.084335 
z"/>
<path fill="#FB9301" opacity="1.000000" stroke="none" 
	d="
M119.887413,122.990204 
	C111.561005,121.120720 107.382637,115.082069 109.256287,108.175316 
	C110.920258,102.041542 117.469460,98.294617 123.695854,99.968361 
	C128.087006,101.148766 130.941269,104.009354 131.966629,108.401436 
	C133.076614,113.155983 131.962494,117.506256 127.899651,120.392654 
	C125.755096,121.916222 123.730431,124.877281 119.887413,122.990204 
z"/>
<path fill="#FC9401" opacity="1.000000" stroke="none" 
	d="
M126.583183,156.591888 
	C121.172646,159.624771 114.576004,158.108078 111.130943,153.305359 
	C107.590805,148.370087 108.367126,141.574203 112.927452,137.578720 
	C117.419106,133.643402 124.439751,133.810181 128.756058,137.954727 
	C133.099091,142.124954 133.595673,149.062164 129.801666,153.724823 
	C128.979172,154.735626 127.868553,155.512009 126.583183,156.591888 
z"/>
<path fill="#000000" opacity="1.000000" stroke="none" 
	d="
M27.194763,16.912960 
	C26.983957,16.828098 26.940672,16.662712 26.990324,16.258324 
	C27.248203,16.190874 27.426302,16.352873 27.564831,16.543610 
	C27.587292,16.574537 27.434221,16.732950 27.194763,16.912960 
z"/>
<path fill="#0E0E0E" opacity="1.000000" stroke="none" 
	d="
M51.556992,133.451599 
	C51.594181,133.507080 51.519798,133.396103 51.556992,133.451599 
z"/>
<path fill="#0E0E0E" opacity="1.000000" stroke="none" 
	d="
M84.460831,133.432922 
	C84.518799,133.399918 84.402855,133.465942 84.460831,133.432922 
z"/>
<path fill="#000000" opacity="1.000000" stroke="none" 
	d="
M27.241413,154.883301 
	C27.021286,154.821213 26.959332,154.661880 26.962307,154.254486 
	C27.151356,154.266296 27.275473,154.526184 27.241413,154.883301 
z"/>
</svg>